HIERARCHY
ROOT Hips
{
	OFFSET 0.000000 0.000000 0.000000
	CHANNELS 6 Xposition Yposition Zposition Xrotation Yrotation Zrotation
	JOINT LeftUpLeg_virtual
	{
		OFFSET 0.000000 0.000000 0.000000
		CHANNELS 3 Xrotation Yrotation Zrotation
		JOINT LeftUpLeg
		{
			OFFSET 10.205400 -3.823500 0.155100
			CHANNELS 3 Xrotation Yrotation Zrotation
			JOINT LeftLeg
			{
				OFFSET 0.708757 -12.982077 0.567790
				CHANNELS 3 Xrotation Yrotation Zrotation
				JOINT LeftFoot
				{
					OFFSET -0.708756 -10.717838 -2.184338
					CHANNELS 3 Xrotation Yrotation Zrotation
					JOINT LeftToeBase
					{
						OFFSET 0.108149 -7.191104 7.560241
						CHANNELS 3 Xrotation Yrotation Zrotation
						JOINT LeftToe_End
						{
							OFFSET 0.070230 0.081724 4.490308
							CHANNELS 3 Xrotation Yrotation Zrotation
							End Site
							{
								OFFSET 0 0 0
							}
						}
					}
				}
			}
		}
	}
	JOINT RightUpLeg_virtual
	{
		OFFSET 0.000000 0.000000 0.000000
		CHANNELS 3 Xrotation Yrotation Zrotation
		JOINT RightUpLeg
		{
			OFFSET -10.205400 -3.823500 0.005500
			CHANNELS 3 Xrotation Yrotation Zrotation
			JOINT RightLeg
			{
				OFFSET -0.708756 -12.982134 0.610632
				CHANNELS 3 Xrotation Yrotation Zrotation
				JOINT RightFoot
				{
					OFFSET 0.708754 -10.717769 -1.945823
					CHANNELS 3 Xrotation Yrotation Zrotation
					JOINT RightToeBase
					{
						OFFSET -0.108140 -7.191069 7.372968
						CHANNELS 3 Xrotation Yrotation Zrotation
						JOINT RightToe_End
						{
							OFFSET -0.070227 0.081735 4.479403
							CHANNELS 3 Xrotation Yrotation Zrotation
							End Site
							{
								OFFSET 0 0 0
							}
						}
					}
				}
			}
		}
	}
	JOINT Spine_virtual
	{
		OFFSET 0.000000 0.000000 0.000000
		CHANNELS 3 Xrotation Yrotation Zrotation
		JOINT Spine
		{
			OFFSET 0.000000 6.876099 0.125700
			CHANNELS 3 Xrotation Yrotation Zrotation
			JOINT Spine1
			{
				OFFSET 0.000000 5.730043 0.104720
				CHANNELS 3 Xrotation Yrotation Zrotation
				JOINT Spine1_split
				{
					OFFSET 0.000000 5.730043 0.104720
					CHANNELS 3 Xrotation Yrotation Zrotation
					JOINT Spine2
					{
						OFFSET 0.000000 5.730043 0.104720
						CHANNELS 3 Xrotation Yrotation Zrotation
						JOINT Neck_virtual
						{
							OFFSET 0.000000 0.000000 0.000000
							CHANNELS 3 Xrotation Yrotation Zrotation
							JOINT Neck
							{
								OFFSET 0.000000 10.314075 0.188496
								CHANNELS 3 Xrotation Yrotation Zrotation
								JOINT Head
								{
									OFFSET 0.000000 7.643700 -2.377400
									CHANNELS 3 Xrotation Yrotation Zrotation
									JOINT HeadTop_End
									{
										OFFSET 0.000000 43.788605 -13.619600
										CHANNELS 3 Xrotation Yrotation Zrotation
										End Site
										{
											OFFSET 0 0 0
										}
									}
								}
							}
						}
						JOINT LeftShoulder_virtual
						{
							OFFSET 0.000000 0.000000 0.000000
							CHANNELS 3 Xrotation Yrotation Zrotation
							JOINT LeftShoulder
							{
								OFFSET 2.196100 4.412489 0.087492
								CHANNELS 3 Xrotation Yrotation Zrotation
								JOINT LeftShoulder_split
								{
									OFFSET 2.196100 4.412489 0.087492
									CHANNELS 3 Xrotation Yrotation Zrotation
									JOINT LeftArm
									{
										OFFSET 8.771219 -2.981674 -0.026999
										CHANNELS 3 Xrotation Yrotation Zrotation
										JOINT LeftForeArm
										{
											OFFSET 8.512804 0.000000 -0.000000
											CHANNELS 3 Xrotation Yrotation Zrotation
											JOINT LeftHand
											{
												OFFSET 18.484802 0.000000 -0.000000
												CHANNELS 3 Xrotation Yrotation Zrotation
												End Site
												{
													OFFSET 0 0 0
												}
											}
										}
									}
								}
							}
						}
						JOINT RightShoulder_virtual
						{
							OFFSET 0.000000 0.000000 0.000000
							CHANNELS 3 Xrotation Yrotation Zrotation
							JOINT RightShoulder
							{
								OFFSET -2.196100 4.412496 0.070690
								CHANNELS 3 Xrotation Yrotation Zrotation
								JOINT RightShoulder_split
								{
									OFFSET -2.196100 4.412496 0.070690
									CHANNELS 3 Xrotation Yrotation Zrotation
									JOINT RightArm
									{
										OFFSET -8.771282 -2.981682 -0.094208
										CHANNELS 3 Xrotation Yrotation Zrotation
										JOINT RightForeArm
										{
											OFFSET -8.494598 0.000000 0.000000
											CHANNELS 3 Xrotation Yrotation Zrotation
											JOINT RightHand
											{
												OFFSET -18.483803 0.000000 0.000001
												CHANNELS 3 Xrotation Yrotation Zrotation
												End Site
												{
													OFFSET 0 0 0
												}
											}
										}
									}
								}
							}
						}
					}
				}
			}
		}
	}
}
MOTION
Frames: 8
Frame Time: 0.03333333
0.140082 29.118183 -0.012594 0.000000 0.000000 0.000000 3.611295 -62.828028 5.750183 -32.672360 7.687791 24.491117 39.680039 -8.722350 -7.918577 -14.371200 1.130725 -7.618250 0.801222 0.664924 0.437363 0.000000 0.000000 0.000000 1.203608 -61.578308 4.628598 -29.542966 -9.366043 -29.705743 48.262035 6.483396 -5.603058 -23.339981 -2.850518 23.335819 2.095577 -1.141792 -2.989247 0.000000 0.000000 0.000000 2.854645 -62.549377 4.801682 8.583531 0.672927 0.391474 10.548614 1.144581 -5.006033 0.592551 -1.158446 0.936734 0.000000 0.000000 0.000000 10.666545 0.511754 -3.893265 -17.836634 20.633494 11.436764 7.325391 33.665599 -7.034883 0.000000 0.000000 0.000000 11.201563 1.003780 -3.951005 -4.716338 -14.421681 0.443969 5.222464 -1.628494 -6.449834 -14.463687 9.697539 -25.318731 7.078140 -51.341808 3.016551 0.000000 0.000000 0.000000 11.315737 0.176995 -4.942708 -6.121152 16.092412 9.084651 -0.739972 3.202573 2.050546 -46.288195 -14.875187 31.935929 -146.049006 65.153898 147.063235 0.000000 0.000000 0.000000 
0.020202 29.095537 0.181885 0.000000 0.000000 0.000000 3.359526 -63.106112 5.590633 -33.254197 7.639323 24.882948 40.660246 -8.688008 -7.788580 -13.989307 1.269491 -7.814567 1.088022 0.728847 0.242133 0.000000 0.000000 0.000000 1.463092 -61.723354 4.729069 -29.301214 -8.611012 -29.659584 47.437873 6.501992 -5.541499 -22.700847 -2.708876 24.369674 1.116280 -1.266493 -3.033932 0.000000 0.000000 0.000000 3.048267 -62.931423 5.097037 8.629462 0.555264 0.384216 10.303712 1.003503 -4.982647 0.093193 -1.587955 0.829467 0.000000 0.000000 0.000000 10.130079 0.451980 -4.004325 -18.012274 19.598748 11.715182 7.333336 32.686635 -6.773231 0.000000 0.000000 0.000000 10.945737 0.849403 -3.951603 -4.816887 -14.087316 0.052701 5.052689 -1.081086 -6.679196 -13.084815 10.651142 -25.037308 7.210714 -51.422274 2.796473 0.000000 0.000000 0.000000 10.998092 0.081161 -4.966747 -6.124267 14.907807 9.640446 -0.462003 3.448860 2.830011 -43.227082 -19.835115 32.507107 -142.686244 65.096757 143.094430 0.000000 0.000000 0.000000 
-0.070062 28.961025 0.321171 0.000000 0.000000 0.000000 3.390516 -62.675517 5.706754 -34.436991 7.020127 25.096108 42.647134 -8.646733 -7.411428 -13.775699 1.221007 -8.030498 1.527691 0.827026 -0.235340 0.000000 0.000000 0.000000 1.986120 -61.307334 5.125362 -29.186778 -7.872024 -29.986081 47.447664 6.178918 -5.345107 -22.536098 -2.684000 25.242566 0.463114 -1.326722 -2.878342 0.000000 0.000000 0.000000 3.899260 -62.715562 6.037352 8.775264 0.238533 0.186943 9.799245 0.786781 -5.028381 0.012071 -2.448568 0.646558 0.000000 0.000000 0.000000 9.357878 0.339048 -4.142278 -18.442009 17.928104 11.120418 5.722328 29.988311 -5.172106 0.000000 0.000000 0.000000 10.350643 0.607934 -4.039280 -4.921564 -13.452352 -0.839044 4.455529 -0.645962 -6.500020 -11.619111 11.952984 -24.574088 5.564922 -52.607681 0.934000 0.000000 0.000000 0.000000 10.317621 -0.061843 -4.984676 -5.899742 13.509295 10.272287 -1.088991 4.104596 3.805316 -39.668984 -25.283931 31.626621 -133.086796 61.400812 132.950793 0.000000 0.000000 0.000000 
-0.121690 28.685656 0.401651 0.000000 0.000000 0.000000 3.688764 -61.592529 6.145353 -36.223980 5.882930 24.993773 45.525704 -8.596484 -6.833138 -13.917199 0.954561 -8.245456 1.844529 0.917452 -0.772100 0.000000 0.000000 0.000000 2.706432 -60.384876 5.852289 -29.167534 -7.069342 -30.773492 48.429480 5.591590 -5.105192 -23.237285 -2.844556 25.834832 0.485608 -1.287233 -2.602182 0.000000 0.000000 0.000000 5.139530 -61.775291 7.437163 9.030475 -0.193804 -0.137800 9.144450 0.563231 -5.100019 0.357410 -3.035991 0.569661 0.000000 0.000000 0.000000 8.479109 0.236061 -4.280425 -19.151415 15.676886 9.804407 2.942678 25.715560 -2.861373 0.000000 0.000000 0.000000 9.505899 0.359142 -4.160542 -5.013597 -12.523208 -2.086880 3.702660 -0.618882 -5.934017 -10.370721 13.286235 -24.007063 2.591110 -54.662065 -2.173946 0.000000 0.000000 0.000000 9.335428 -0.218987 -4.990473 -5.457137 12.045241 10.873595 -2.267213 4.604197 4.653481 -36.190171 -30.284967 29.642236 -123.347097 54.466292 122.711110 0.000000 0.000000 0.000000 
-0.120845 28.254520 0.452284 0.000000 0.000000 0.000000 4.229983 -59.998800 6.964148 -38.479978 4.354786 24.464238 49.129056 -8.495306 -6.144550 -14.412580 0.537790 -8.546825 1.891441 0.958823 -1.140995 0.000000 0.000000 0.000000 3.395187 -59.098184 6.821264 -29.426921 -6.007664 -32.091203 50.650651 4.879383 -4.911028 -24.964049 -3.257383 26.235942 1.015297 -1.154884 -2.194617 0.000000 0.000000 0.000000 6.379795 -60.272813 8.984009 9.343044 -0.600134 -0.478296 8.399717 0.418195 -5.132977 0.709900 -3.334929 0.672541 0.000000 0.000000 0.000000 7.600202 0.196216 -4.376306 -20.113708 13.007840 8.053259 -0.310126 20.317803 -0.588754 0.000000 0.000000 0.000000 8.480043 0.200188 -4.235228 -5.067664 -11.467263 -3.533375 2.972453 -0.785431 -5.282199 -9.642135 14.534822 -23.824656 -0.643493 -56.526939 -5.662923 0.000000 0.000000 0.000000 8.197803 -0.330449 -4.931602 -4.980095 10.763909 11.319858 -2.685662 4.873772 4.638382 -33.341613 -34.031527 27.012710 -115.196919 46.374720 114.083482 0.000000 0.000000 0.000000 
-0.102262 27.667627 0.522682 0.000000 0.000000 0.000000 4.979903 -58.085254 8.161318 -41.194636 2.521848 23.464145 53.273300 -8.339961 -5.474429 -15.191464 0.065943 -9.014958 1.611090 0.938795 -1.221079 0.000000 0.000000 0.000000 3.887990 -57.618240 7.956956 -29.929418 -4.522023 -33.916049 54.198449 4.173749 -4.827461 -27.389463 -3.992995 26.826961 1.486627 -0.960211 -1.680009 0.000000 0.000000 0.000000 7.392093 -58.326339 10.449668 9.624927 -0.836175 -0.714922 7.661701 0.404867 -5.055656 0.995303 -3.483260 0.900630 0.000000 0.000000 0.000000 6.846535 0.256505 -4.378949 -21.278083 10.058682 6.151761 -3.441452 14.393924 1.086387 0.000000 0.000000 0.000000 7.398886 0.178580 -4.203055 -5.095958 -10.428230 -5.059376 2.299412 -1.389150 -4.821781 -9.324865 15.092162 -24.587423 -2.794541 -57.379443 -8.314875 0.000000 0.000000 0.000000 7.049964 -0.335603 -4.776861 -4.591336 9.935388 11.623029 -3.184472 4.041067 3.943968 -30.998455 -35.990207 24.808229 -107.514657 39.219199 105.797745 0.000000 0.000000 0.000000 
-0.062817 26.930752 0.597464 0.000000 0.000000 0.000000 5.567233 -55.935110 9.398449 -44.275106 0.493885 21.930426 57.703726 -8.102330 -4.848112 -15.953116 -0.336102 -9.816338 1.127379 0.878464 -0.976834 0.000000 0.000000 0.000000 4.109799 -55.943545 9.141625 -30.442809 -2.423990 -36.056036 58.776353 3.495377 -4.915142 -30.143681 -5.159857 28.010626 1.136668 -0.804338 -1.084050 0.000000 0.000000 0.000000 7.955354 -56.008507 11.601594 9.816831 -0.862574 -0.786561 7.023592 0.510373 -4.835245 1.045896 -3.425504 0.744630 0.000000 0.000000 0.000000 6.253768 0.396041 -4.254725 -22.620750 7.000472 4.224073 -5.989983 8.434884 1.918548 0.000000 0.000000 0.000000 6.399353 0.276163 -4.050249 -5.122849 -9.680950 -6.693511 1.573506 -2.148789 -4.541502 -9.634608 14.359021 -26.533857 -2.680210 -56.849075 -9.072089 0.000000 0.000000 0.000000 6.048453 -0.196458 -4.450018 -4.369549 9.777429 12.220427 -4.123060 2.559478 2.938306 -29.598314 -36.163123 23.621803 -98.942202 33.773431 96.034113 0.000000 0.000000 0.000000 
-0.009409 26.082914 0.694843 0.000000 0.000000 0.000000 5.812681 -53.689313 10.419363 -47.692042 -1.565242 19.961559 62.268751 -7.788775 -4.293829 -16.427554 -0.504122 -10.914039 0.728453 0.799658 -0.514463 0.000000 0.000000 0.000000 3.995431 -54.160934 10.129071 -30.528555 0.136617 -38.208276 63.884931 2.685497 -5.178776 -33.268765 -6.918052 29.560048 0.038154 -0.769366 -0.392202 0.000000 0.000000 0.000000 7.945500 -53.469907 12.270951 9.867556 -0.657822 -0.656738 6.516555 0.682125 -4.476633 1.112807 -3.177240 0.471972 0.000000 0.000000 0.000000 5.809904 0.581748 -3.967967 -24.069930 4.003757 2.414251 -7.615986 3.032382 1.952775 0.000000 0.000000 0.000000 5.588778 0.436583 -3.785433 -5.172802 -9.386967 -8.309524 0.606274 -2.319539 -4.827390 -10.741290 12.347055 -29.656722 -0.466830 -54.720112 -7.987099 0.000000 0.000000 0.000000 5.335995 0.042613 -3.958066 -4.464957 10.277135 13.325029 -5.027237 1.531514 2.311130 -30.178378 -34.958230 23.570093 -89.584782 29.617766 84.509978 0.000000 0.000000 0.000000 
